<mxfile host="app.diagrams.net" modified="2021-11-03T17:26:28.457Z" agent="5.0 (Windows NT 10.0; Win64; x64) AppleWebKit/537.36 (KHTML, like Gecko) Chrome/95.0.4638.54 Safari/537.36" etag="8Eud69tyYnHvLZ-e7ivp" version="15.6.8" type="github">
  <diagram id="C5RBs43oDa-KdzZeNtuy" name="Page-1">
    <mxGraphModel dx="460" dy="780" grid="1" gridSize="10" guides="1" tooltips="1" connect="1" arrows="1" fold="1" page="1" pageScale="1" pageWidth="827" pageHeight="1169" math="0" shadow="0">
      <root>
        <mxCell id="WIyWlLk6GJQsqaUBKTNV-0" />
        <mxCell id="WIyWlLk6GJQsqaUBKTNV-1" parent="WIyWlLk6GJQsqaUBKTNV-0" />
        <mxCell id="6AsahDRtnpimWXFHmOEH-0" value="Start" style="ellipse;whiteSpace=wrap;html=1;" vertex="1" parent="WIyWlLk6GJQsqaUBKTNV-1">
          <mxGeometry x="60" y="33" width="90" height="60" as="geometry" />
        </mxCell>
        <mxCell id="6AsahDRtnpimWXFHmOEH-1" value="Hello World" style="shape=document;whiteSpace=wrap;html=1;boundedLbl=1;" vertex="1" parent="WIyWlLk6GJQsqaUBKTNV-1">
          <mxGeometry x="55" y="150" width="100" height="50" as="geometry" />
        </mxCell>
        <mxCell id="6AsahDRtnpimWXFHmOEH-3" value="" style="endArrow=classic;html=1;rounded=0;" edge="1" parent="WIyWlLk6GJQsqaUBKTNV-1">
          <mxGeometry width="50" height="50" relative="1" as="geometry">
            <mxPoint x="104.5" y="100" as="sourcePoint" />
            <mxPoint x="104.5" y="140" as="targetPoint" />
          </mxGeometry>
        </mxCell>
        <mxCell id="6AsahDRtnpimWXFHmOEH-4" value="" style="endArrow=classic;html=1;rounded=0;" edge="1" parent="WIyWlLk6GJQsqaUBKTNV-1">
          <mxGeometry width="50" height="50" relative="1" as="geometry">
            <mxPoint x="104.5" y="200" as="sourcePoint" />
            <mxPoint x="104.5" y="230" as="targetPoint" />
          </mxGeometry>
        </mxCell>
        <mxCell id="6AsahDRtnpimWXFHmOEH-5" value="Finish" style="ellipse;whiteSpace=wrap;html=1;" vertex="1" parent="WIyWlLk6GJQsqaUBKTNV-1">
          <mxGeometry x="55" y="240" width="100" height="50" as="geometry" />
        </mxCell>
        <mxCell id="6AsahDRtnpimWXFHmOEH-6" value="Start" style="ellipse;whiteSpace=wrap;html=1;" vertex="1" parent="WIyWlLk6GJQsqaUBKTNV-1">
          <mxGeometry x="294" y="20" width="120" height="60" as="geometry" />
        </mxCell>
        <mxCell id="6AsahDRtnpimWXFHmOEH-8" value="Enter 2 int variable" style="shape=parallelogram;perimeter=parallelogramPerimeter;whiteSpace=wrap;html=1;fixedSize=1;" vertex="1" parent="WIyWlLk6GJQsqaUBKTNV-1">
          <mxGeometry x="290" y="110" width="130" height="50" as="geometry" />
        </mxCell>
        <mxCell id="6AsahDRtnpimWXFHmOEH-9" value="addition =a+b" style="rounded=0;whiteSpace=wrap;html=1;" vertex="1" parent="WIyWlLk6GJQsqaUBKTNV-1">
          <mxGeometry x="290" y="190" width="110" height="50" as="geometry" />
        </mxCell>
        <mxCell id="6AsahDRtnpimWXFHmOEH-10" value="print addition" style="shape=document;whiteSpace=wrap;html=1;boundedLbl=1;" vertex="1" parent="WIyWlLk6GJQsqaUBKTNV-1">
          <mxGeometry x="294" y="260" width="106" height="60" as="geometry" />
        </mxCell>
        <mxCell id="6AsahDRtnpimWXFHmOEH-11" value="Finish" style="ellipse;whiteSpace=wrap;html=1;" vertex="1" parent="WIyWlLk6GJQsqaUBKTNV-1">
          <mxGeometry x="295" y="340" width="120" height="60" as="geometry" />
        </mxCell>
        <mxCell id="6AsahDRtnpimWXFHmOEH-12" value="Start" style="ellipse;whiteSpace=wrap;html=1;" vertex="1" parent="WIyWlLk6GJQsqaUBKTNV-1">
          <mxGeometry x="40" y="510" width="120" height="60" as="geometry" />
        </mxCell>
        <mxCell id="6AsahDRtnpimWXFHmOEH-13" value="Enter 2 int variable" style="shape=parallelogram;perimeter=parallelogramPerimeter;whiteSpace=wrap;html=1;fixedSize=1;" vertex="1" parent="WIyWlLk6GJQsqaUBKTNV-1">
          <mxGeometry x="40" y="600" width="130" height="50" as="geometry" />
        </mxCell>
        <mxCell id="6AsahDRtnpimWXFHmOEH-14" value="avarage =(a+b)/2" style="rounded=0;whiteSpace=wrap;html=1;" vertex="1" parent="WIyWlLk6GJQsqaUBKTNV-1">
          <mxGeometry x="40" y="680" width="110" height="50" as="geometry" />
        </mxCell>
        <mxCell id="6AsahDRtnpimWXFHmOEH-15" value="print avarage" style="shape=document;whiteSpace=wrap;html=1;boundedLbl=1;" vertex="1" parent="WIyWlLk6GJQsqaUBKTNV-1">
          <mxGeometry x="40" y="760" width="106" height="60" as="geometry" />
        </mxCell>
        <mxCell id="6AsahDRtnpimWXFHmOEH-16" value="Finish" style="ellipse;whiteSpace=wrap;html=1;" vertex="1" parent="WIyWlLk6GJQsqaUBKTNV-1">
          <mxGeometry x="40" y="850" width="120" height="60" as="geometry" />
        </mxCell>
        <mxCell id="6AsahDRtnpimWXFHmOEH-17" value="" style="endArrow=classic;html=1;rounded=0;" edge="1" parent="WIyWlLk6GJQsqaUBKTNV-1">
          <mxGeometry width="50" height="50" relative="1" as="geometry">
            <mxPoint x="94.5" y="571" as="sourcePoint" />
            <mxPoint x="94.5" y="601" as="targetPoint" />
          </mxGeometry>
        </mxCell>
        <mxCell id="6AsahDRtnpimWXFHmOEH-18" value="" style="endArrow=classic;html=1;rounded=0;" edge="1" parent="WIyWlLk6GJQsqaUBKTNV-1">
          <mxGeometry width="50" height="50" relative="1" as="geometry">
            <mxPoint x="94.5" y="651" as="sourcePoint" />
            <mxPoint x="94.5" y="681" as="targetPoint" />
          </mxGeometry>
        </mxCell>
        <mxCell id="6AsahDRtnpimWXFHmOEH-19" value="" style="endArrow=classic;html=1;rounded=0;" edge="1" parent="WIyWlLk6GJQsqaUBKTNV-1">
          <mxGeometry width="50" height="50" relative="1" as="geometry">
            <mxPoint x="94.5" y="731" as="sourcePoint" />
            <mxPoint x="94.5" y="761" as="targetPoint" />
          </mxGeometry>
        </mxCell>
        <mxCell id="6AsahDRtnpimWXFHmOEH-20" value="" style="endArrow=classic;html=1;rounded=0;" edge="1" parent="WIyWlLk6GJQsqaUBKTNV-1">
          <mxGeometry width="50" height="50" relative="1" as="geometry">
            <mxPoint x="94.5" y="811" as="sourcePoint" />
            <mxPoint x="94.5" y="841" as="targetPoint" />
          </mxGeometry>
        </mxCell>
        <mxCell id="6AsahDRtnpimWXFHmOEH-21" value="" style="endArrow=classic;html=1;rounded=0;" edge="1" parent="WIyWlLk6GJQsqaUBKTNV-1">
          <mxGeometry width="50" height="50" relative="1" as="geometry">
            <mxPoint x="362.5" y="304" as="sourcePoint" />
            <mxPoint x="362.5" y="334" as="targetPoint" />
          </mxGeometry>
        </mxCell>
        <mxCell id="6AsahDRtnpimWXFHmOEH-22" value="" style="endArrow=classic;html=1;rounded=0;" edge="1" parent="WIyWlLk6GJQsqaUBKTNV-1">
          <mxGeometry width="50" height="50" relative="1" as="geometry">
            <mxPoint x="365" y="240" as="sourcePoint" />
            <mxPoint x="364.5" y="261" as="targetPoint" />
          </mxGeometry>
        </mxCell>
        <mxCell id="6AsahDRtnpimWXFHmOEH-23" value="" style="endArrow=classic;html=1;rounded=0;" edge="1" parent="WIyWlLk6GJQsqaUBKTNV-1">
          <mxGeometry width="50" height="50" relative="1" as="geometry">
            <mxPoint x="354.5" y="160" as="sourcePoint" />
            <mxPoint x="354.5" y="190" as="targetPoint" />
          </mxGeometry>
        </mxCell>
        <mxCell id="6AsahDRtnpimWXFHmOEH-24" value="" style="endArrow=classic;html=1;rounded=0;" edge="1" parent="WIyWlLk6GJQsqaUBKTNV-1">
          <mxGeometry width="50" height="50" relative="1" as="geometry">
            <mxPoint x="353.5" y="81" as="sourcePoint" />
            <mxPoint x="353.5" y="111" as="targetPoint" />
          </mxGeometry>
        </mxCell>
      </root>
    </mxGraphModel>
  </diagram>
</mxfile>
